{"title":"Vinyan 2008 DVDRip Xvid BigPerm LKRG","uid":6177853,"size":1108171827,"categoryP":"video","categoryS":"movies","magnet":"?xt=urn:btih:3b325dddbba63ed0393fb93a0eda312fab0cc791&amp;dn=Vinyan+2008+DVDRip+Xvid+BigPerm+LKRG&amp;tr=udp%3A%2F%2Ftracker.openbittorrent.com%3A80&amp;tr=udp%3A%2F%2Fopen.demonii.com%3A1337&amp;tr=udp%3A%2F%2Ftracker.coppersurfer.tk%3A6969&amp;tr=udp%3A%2F%2Fexodus.desync.com%3A6969","seeders":2,"leechers":0,"uploader":"hiest","files":-1,"time":1297836706,"description":"Plot\n\nA couple are looking for their child who was lost in the tsunami - their search takes\nthem to the dangerous Thai-Burmese waters, and then into the jungle, where they face\nunknown but horrifying dangers.\n\n\n &lt;a href=&quot;\nhttp://www.imdb.com/title/tt1029241/&quot; rel=&quot;nofollow&quot; target=&quot;_NEW&quot;&gt;\nhttp://www.imdb.com/title/tt1029241/&lt;/a&gt;\n\n\n\nGeneral\nComplete name : Vinyan 2008 DVDRip Xvid BigPerm LKRGV_LKRG.avi\nFormat : AVI\nFormat/Info : Audio Video Interleave\nFormat profile : OpenDML\nFile size : 1.03 GiB\nDuration : 1h 36mn\nOverall bit rate : 1 534 Kbps\n\nVideo\nID : 0\nFormat : MPEG-4 Visual\nFormat profile : Advanced Simple@L5\nFormat settings, BVOP : Yes\nFormat settings, QPel : No\nFormat settings, GMC : No warppoints\nFormat settings, Matrix : Default (H.263)\nCodec ID : XVID\nCodec ID/Hint : XviD\nDuration : 1h 36mn\nBit rate : 58.3 Kbps\nWidth : 704 pixels\nHeight : 396 pixels\nDisplay aspect ratio : 16:9\nFrame rate : 23.976 fps\nColor space : YUV\nChroma subsampling : 4:2:0\nBit depth : 8 bits\nScan type : Progressive\nCompression mode : Lossy\nBits/(Pixel*Frame) : 0.009\nStream size : 40.2 MiB (4%)\nWriting library : XviD 1.2.1 (UTC 2008-12-04)\n\nAudio\nID : 1\nFormat : AC-3\nFormat/Info : Audio Coding 3\nCodec ID : 2000\nDuration : 1h 36mn\nBit rate mode : Constant\nBit rate : 448 Kbps\nChannel(s) : 6 channels\nSampling rate : 48.0 KHz\nBit depth : 16 bits\nCompression mode : Lossy\nStream size : 309 MiB (29%)\nAlignment : Aligned on interleaves\nLanguage : English\n\n\n\n\n\n\n================================== &lt;a href=&quot;\nhttp://thepiratebay.se/user/hiest&quot; rel=&quot;nofollow&quot; target=&quot;_NEW&quot;&gt;\nhttp://thepiratebay.se/user/hiest&lt;/a&gt;\n==================================\n\n\n\n\n\n\nScreenshots:\n &lt;a href=&quot;\nhttp://leetleech.org/images/97813910060724616940.png&quot; rel=&quot;nofollow&quot; target=&quot;_NEW&quot;&gt;\nhttp://leetleech.org/images/97813910060724616940.png&lt;/a&gt;\n &lt;a href=&quot;\nhttp://leetleech.org/images/58641793011621933672.png&quot; rel=&quot;nofollow&quot; target=&quot;_NEW&quot;&gt;\nhttp://leetleech.org/images/58641793011621933672.png&lt;/a&gt;\n &lt;a href=&quot;\nhttp://leetleech.org/images/38312427176166604326.png&quot; rel=&quot;nofollow&quot; target=&quot;_NEW&quot;&gt;\nhttp://leetleech.org/images/38312427176166604326.png&lt;/a&gt;\n &lt;a href=&quot;\nhttp://leetleech.org/images/86887707866808678437.png&quot; rel=&quot;nofollow&quot; target=&quot;_NEW&quot;&gt;\nhttp://leetleech.org/images/86887707866808678437.png&lt;/a&gt;\n\n","torrent":{"xt":"urn:btih:3b325dddbba63ed0393fb93a0eda312fab0cc791","amp;dn":"Vinyan+2008+DVDRip+Xvid+BigPerm+LKRG","amp;tr":["udp%3A%2F%2Ftracker.openbittorrent.com%3A80","udp%3A%2F%2Fopen.demonii.com%3A1337","udp%3A%2F%2Ftracker.coppersurfer.tk%3A6969","udp%3A%2F%2Fexodus.desync.com%3A6969"],"infoHash":"3b325dddbba63ed0393fb93a0eda312fab0cc791","infoHashBuffer":{"type":"Buffer","data":[59,50,93,221,187,166,62,208,57,63,185,58,14,218,49,47,171,12,199,145]},"announce":[],"urlList":[]}}